<?xml version="1.0" standalone="no"?>
<!DOCTYPE svg PUBLIC "-//W3C//DTD SVG 20010904//EN"
 "http://www.w3.org/TR/2001/REC-SVG-20010904/DTD/svg10.dtd">
<svg version="1.0" xmlns="http://www.w3.org/2000/svg"
 width="700.000000pt" height="700.000000pt" viewBox="0 0 700.000000 700.000000"
 preserveAspectRatio="xMidYMid meet">
<metadata>
Created by potrace 1.11, written by Peter Selinger 2001-2013
</metadata>
<g transform="translate(0.000000,700.000000) scale(0.100000,-0.100000)"
fill="#000000" stroke="none">
<path d="M3328 6995 c-2 -1 -48 -5 -104 -9 -55 -4 -109 -8 -120 -10 -10 -2
-46 -7 -79 -11 -32 -4 -66 -8 -75 -10 -197 -37 -265 -52 -370 -80 -409 -112
-790 -295 -1135 -546 -66 -48 -133 -99 -150 -113 -16 -14 -53 -45 -82 -68 -52
-43 -299 -290 -361 -360 -192 -221 -396 -537 -525 -815 -49 -106 -144 -345
-152 -383 -2 -8 -17 -60 -34 -115 -35 -113 -97 -407 -107 -505 -3 -36 -8 -67
-9 -70 -17 -28 -25 -486 -12 -660 25 -360 134 -812 267 -1105 101 -226 193
-394 303 -560 55 -82 164 -233 177 -245 3 -3 25 -30 50 -60 234 -288 573 -577
905 -773 11 -7 31 -19 45 -28 26 -17 257 -134 320 -162 19 -9 81 -34 137 -56
257 -102 490 -164 778 -207 17 -2 41 -6 55 -9 14 -2 61 -7 105 -11 44 -3 96
-8 115 -10 51 -4 421 -5 450 0 14 2 63 7 110 11 239 18 530 81 800 171 74 25
140 49 145 54 6 4 21 11 35 15 74 22 379 173 485 240 286 179 452 311 671 529
393 393 674 845 847 1366 40 118 101 346 113 420 3 14 9 48 14 75 5 28 12 73
16 100 3 28 8 57 9 66 2 8 6 55 10 104 4 49 9 105 11 125 4 49 4 374 0 435 -5
64 -16 183 -21 215 -3 14 -7 45 -10 69 -7 61 -23 144 -61 321 -18 86 -93 321
-139 440 -454 1158 -1494 1996 -2710 2184 -121 19 -118 18 -260 32 -65 6 -452
13 -457 9z m472 -699 c14 -3 43 -7 65 -10 305 -38 592 -125 880 -266 77 -38
156 -79 175 -92 19 -13 64 -41 100 -63 65 -39 235 -164 300 -220 164 -142 353
-349 472 -515 274 -383 458 -859 502 -1300 3 -30 9 -82 12 -115 12 -117 5
-429 -11 -535 -2 -14 -7 -50 -10 -80 -3 -30 -8 -62 -10 -70 -2 -8 -7 -31 -10
-50 -20 -126 -111 -434 -163 -550 -125 -282 -273 -527 -424 -706 -137 -161
-252 -273 -444 -434 -55 -45 -230 -162 -334 -222 -94 -55 -258 -138 -280 -143
-3 -1 -23 -9 -45 -19 -103 -45 -399 -136 -495 -152 -14 -3 -47 -9 -75 -14
-312 -58 -669 -59 -990 -4 -472 83 -913 282 -1285 580 -112 90 -339 316 -429
429 -207 257 -377 568 -476 870 -31 95 -60 196 -70 245 -20 93 -46 233 -49
265 -22 176 -28 503 -13 635 4 36 10 85 13 110 10 88 36 226 65 335 169 657
572 1228 1139 1617 52 35 111 73 130 84 19 10 37 22 40 25 13 14 296 151 390
187 143 56 353 117 470 137 19 3 42 8 50 10 8 2 38 7 65 11 28 3 59 8 70 10
11 2 54 7 95 10 41 4 77 8 79 10 6 6 472 -3 501 -10z"/>
<path d="M1451 5108 c11 -29 43 -111 71 -183 27 -71 54 -139 59 -150 5 -11 37
-94 72 -185 35 -91 104 -266 152 -390 48 -124 96 -245 105 -270 49 -129 442
-1138 450 -1155 5 -11 37 -92 70 -180 34 -88 65 -169 70 -180 11 -23 99 -250
160 -410 24 -60 48 -123 55 -140 7 -16 36 -88 63 -160 129 -334 214 -552 222
-570 5 -11 27 -68 50 -126 l41 -106 413 -2 414 -1 10 28 c6 15 47 122 92 237
46 116 92 237 105 270 31 85 395 1026 406 1050 8 18 161 414 249 645 18 47 36
94 41 105 5 11 49 126 99 255 50 129 94 244 99 255 5 11 14 36 21 55 7 19 18
49 25 65 8 17 28 68 45 115 18 47 36 94 40 105 5 11 37 92 71 180 33 88 76
198 94 245 18 47 56 146 85 220 29 74 76 197 106 273 30 76 52 142 49 147 -3
5 -256 8 -564 8 l-558 0 -26 -77 c-35 -101 -117 -332 -162 -456 -20 -55 -44
-125 -54 -155 -18 -52 -210 -593 -252 -710 -12 -30 -24 -66 -29 -80 -4 -14
-31 -90 -60 -170 -28 -80 -76 -212 -105 -295 -124 -353 -224 -632 -235 -660
l-13 -30 -7 25 c-5 14 -30 88 -58 165 -27 77 -107 300 -176 495 -70 195 -130
362 -133 370 -3 8 -7 20 -9 25 -3 11 -86 244 -114 320 -10 28 -48 133 -83 235
-121 343 -238 675 -262 740 -13 36 -39 108 -57 160 l-33 95 -568 3 -567 2 21
-52z"/>
</g>
</svg>
