<?xml version="1.0" encoding="UTF-8" standalone="no"?>
<!DOCTYPE svg PUBLIC "-//W3C//DTD SVG 1.1//EN" "http://www.w3.org/Graphics/SVG/1.1/DTD/svg11.dtd">
<svg version="1.1" xmlns="http://www.w3.org/2000/svg" xmlns:xlink="http://www.w3.org/1999/xlink" preserveAspectRatio="xMidYMid meet" viewBox="-1080.9999999999995 -1803.222222222227 2803.9999999999995 2803.9999999999995" width="2800" height="2800"><defs><path d="M-481.59 -998.69C-468.79 -965.77 -443.87 -901.8 -426.27 -856.75C-408.68 -811.7 -381.22 -741.19 -365.23 -700.14C-349.24 -659.09 -321.65 -588.32 -303.92 -542.87C-286.19 -497.42 -258.61 -426.65 -242.61 -385.6C-226.62 -344.55 -199.03 -273.78 -181.3 -228.33C-163.58 -182.88 -135.05 -109.71 -117.86 -65.72C-100.8 -21.74 -31.89 154.86 35.15 326.79C43.27 347.63 83.87 451.81 156.97 639.33L322.63 639.6L488.44 640C685.96 129.64 795.69 -153.89 817.64 -210.6C998.77 -678.28 1147.24 -1062.13 1147.78 -1063.6C1148.71 -1066 1142.31 -1066 922 -1065.73C906.89 -1065.71 831.32 -1065.57 695.29 -1065.33C583.17 -748.9 520.89 -573.1 508.43 -537.94C405.67 -247.79 321.3 -10.15 320.9 -9.75C319.97 -8.68 338.63 43.83 129.51 -546.87C117.27 -581.43 56.04 -754.26 -54.15 -1065.33L-281 -1065.73L-507.84 -1066L-506.38 -1062.4C-498.47 -1041.96 -490.2 -1020.73 -481.59 -998.69Z" id="h2fBKw2QP"></path><path d="" id="b5dWYLBJha"></path><path d="M434.82 -1797.58L491.3 -1791.85L547.09 -1783.9L602.15 -1773.78L656.44 -1761.53L709.9 -1747.21L762.51 -1730.85L814.2 -1712.5L864.94 -1692.2L914.68 -1670.01L963.38 -1645.96L1010.99 -1620.1L1057.46 -1592.47L1102.75 -1563.12L1146.82 -1532.1L1189.62 -1499.45L1231.11 -1465.22L1271.23 -1429.44L1309.95 -1392.17L1347.22 -1353.45L1383 -1313.33L1417.23 -1271.84L1449.88 -1229.04L1480.9 -1184.98L1510.25 -1139.68L1537.87 -1093.21L1563.73 -1045.6L1587.79 -996.91L1609.98 -947.17L1630.28 -896.43L1648.63 -844.73L1664.99 -792.13L1679.31 -738.66L1691.56 -684.37L1701.68 -629.31L1709.63 -573.52L1715.36 -517.04L1718.83 -459.93L1720 -402.22L1718.83 -344.51L1715.36 -287.4L1709.63 -230.93L1701.68 -175.13L1691.56 -120.07L1679.31 -65.79L1664.99 -12.32L1648.63 40.29L1630.28 91.98L1609.98 142.72L1587.79 192.46L1563.73 241.16L1537.87 288.77L1510.25 335.24L1480.9 380.53L1449.88 424.6L1417.23 467.4L1383 508.88L1347.22 549.01L1309.95 587.73L1271.23 625L1231.11 660.77L1189.62 695.01L1146.82 727.66L1102.75 758.68L1057.46 788.03L1010.99 815.65L963.38 841.51L914.68 865.56L864.94 887.76L814.2 908.05L762.51 926.4L709.9 942.77L656.44 957.09L602.15 969.33L547.09 979.45L491.3 987.4L434.82 993.14L377.71 996.61L320 997.78L262.29 996.61L205.18 993.14L148.7 987.4L92.91 979.45L37.85 969.33L-16.44 957.09L-69.9 942.77L-122.51 926.4L-174.2 908.05L-224.94 887.76L-274.68 865.56L-323.38 841.51L-370.99 815.65L-417.46 788.03L-462.75 758.68L-506.82 727.66L-549.62 695.01L-591.11 660.77L-631.23 625L-669.95 587.73L-707.22 549.01L-743 508.88L-777.23 467.4L-809.88 424.6L-840.9 380.53L-870.25 335.24L-897.87 288.77L-923.73 241.16L-947.79 192.46L-969.98 142.72L-990.28 91.98L-1008.63 40.29L-1024.99 -12.32L-1039.31 -65.79L-1051.56 -120.07L-1061.68 -175.13L-1069.63 -230.93L-1075.36 -287.4L-1078.83 -344.51L-1080 -402.22L-1078.83 -459.93L-1075.36 -517.04L-1069.63 -573.52L-1061.68 -629.31L-1051.56 -684.37L-1039.31 -738.66L-1024.99 -792.13L-1008.63 -844.73L-990.28 -896.43L-969.98 -947.17L-947.79 -996.91L-923.73 -1045.6L-897.87 -1093.21L-870.25 -1139.68L-840.9 -1184.98L-809.88 -1229.04L-777.23 -1271.84L-743 -1313.33L-707.22 -1353.45L-669.95 -1392.17L-631.23 -1429.44L-591.11 -1465.22L-549.62 -1499.45L-506.82 -1532.1L-462.75 -1563.12L-417.46 -1592.47L-370.99 -1620.1L-323.38 -1645.96L-274.68 -1670.01L-224.94 -1692.2L-174.2 -1712.5L-122.51 -1730.85L-69.9 -1747.21L-16.44 -1761.53L37.85 -1773.78L92.91 -1783.9L148.7 -1791.85L205.18 -1797.58L262.29 -1801.05L320 -1802.22L377.71 -1801.05L434.82 -1797.58ZM274.84 -1526.19L252.38 -1525.09L230 -1523.56L207.71 -1521.6L185.51 -1519.21L163.41 -1516.39L141.41 -1513.15L119.52 -1509.48L97.75 -1505.39L76.09 -1500.88L54.55 -1495.95L33.14 -1490.6L11.86 -1484.85L-9.28 -1478.67L-30.28 -1472.09L-51.13 -1465.1L-71.83 -1457.71L-92.37 -1449.91L-112.76 -1441.71L-132.97 -1433.11L-153.02 -1424.11L-172.88 -1414.72L-192.57 -1404.93L-212.07 -1394.75L-231.38 -1384.18L-250.49 -1373.23L-269.41 -1361.88L-288.11 -1350.16L-306.61 -1338.05L-324.89 -1325.56L-342.95 -1312.7L-360.79 -1299.46L-378.39 -1285.84L-395.76 -1271.86L-412.89 -1257.5L-429.78 -1242.78L-446.42 -1227.69L-462.8 -1212.24L-478.92 -1196.43L-494.66 -1180.38L-510.04 -1164.07L-525.06 -1147.51L-539.72 -1130.7L-554.01 -1113.65L-567.94 -1096.36L-581.49 -1078.84L-594.67 -1061.1L-607.48 -1043.13L-619.92 -1024.94L-631.97 -1006.54L-643.65 -987.93L-654.94 -969.12L-665.85 -950.11L-676.38 -930.91L-686.52 -911.52L-696.26 -891.94L-705.62 -872.18L-714.58 -852.26L-723.14 -832.16L-731.31 -811.9L-739.08 -791.48L-746.44 -770.9L-753.4 -750.18L-759.96 -729.31L-766.1 -708.3L-771.84 -687.15L-777.16 -665.88L-782.07 -644.48L-786.57 -622.96L-790.64 -601.32L-794.3 -579.58L-797.53 -557.73L-800.34 -535.78L-802.72 -513.73L-804.67 -491.59L-806.19 -469.36L-807.28 -447.06L-807.94 -424.68L-808.16 -402.22L-807.94 -379.77L-807.28 -357.39L-806.19 -335.09L-804.67 -312.87L-802.72 -290.73L-800.34 -268.69L-797.53 -246.74L-794.3 -224.89L-790.64 -203.14L-786.57 -181.51L-782.07 -159.99L-777.16 -138.6L-771.84 -117.33L-766.1 -96.18L-759.96 -75.18L-753.4 -54.31L-746.44 -33.58L-739.08 -13.01L-731.31 7.41L-723.14 27.67L-714.58 47.77L-705.62 67.7L-696.26 87.45L-686.52 107.03L-676.38 126.42L-665.85 145.62L-654.94 164.63L-643.65 183.45L-631.97 202.06L-619.92 220.46L-607.48 238.65L-594.67 256.62L-581.49 274.37L-567.94 291.89L-554.01 309.18L-539.72 326.23L-525.06 343.05L-510.04 359.61L-494.66 375.92L-478.92 391.98L-462.8 407.79L-446.42 423.24L-429.78 438.33L-412.89 453.05L-395.76 467.4L-378.39 481.38L-360.79 495L-342.95 508.24L-324.89 521.1L-306.61 533.59L-288.11 545.69L-269.41 557.42L-250.49 568.76L-231.38 579.72L-212.07 590.29L-192.57 600.47L-172.88 610.26L-153.01 619.65L-132.97 628.65L-112.75 637.25L-92.37 645.45L-71.83 653.25L-51.13 660.65L-30.27 667.64L-9.28 674.22L11.87 680.39L33.14 686.15L54.55 691.5L76.09 696.43L97.75 700.94L119.53 705.03L141.42 708.7L163.42 711.95L185.52 714.77L207.72 717.16L230.01 719.12L252.39 720.65L274.85 721.74L297.39 722.4L320.01 722.62L342.62 722.4L365.16 721.74L387.62 720.65L410 719.12L432.29 717.16L454.49 714.77L476.59 711.95L498.59 708.7L520.48 705.04L542.25 700.94L563.91 696.43L585.45 691.5L606.86 686.16L628.14 680.4L649.28 674.23L670.27 667.65L691.12 660.66L711.82 653.27L732.37 645.47L752.75 637.27L772.96 628.67L793.01 619.67L812.87 610.27L832.56 600.49L852.06 590.31L871.37 579.74L890.48 568.78L909.4 557.44L928.1 545.71L946.6 533.61L964.88 521.12L982.94 508.25L1000.78 495.01L1018.39 481.4L1035.76 467.41L1052.89 453.06L1069.78 438.33L1086.42 423.25L1102.8 407.79L1118.93 391.98L1134.67 375.93L1150.05 359.62L1165.07 343.05L1179.73 326.24L1194.02 309.19L1207.94 291.9L1221.49 274.38L1234.68 256.63L1247.48 238.66L1259.92 220.47L1271.97 202.07L1283.65 183.46L1294.94 164.65L1305.85 145.64L1316.37 126.43L1326.5 107.04L1336.25 87.46L1345.6 67.71L1354.56 47.78L1363.12 27.68L1371.29 7.42L1379.05 -13L1386.41 -33.57L1393.37 -54.3L1399.92 -75.17L1406.07 -96.17L1411.8 -117.32L1417.12 -138.59L1422.03 -159.99L1426.52 -181.51L1430.59 -203.14L1434.24 -224.88L1437.47 -246.73L1440.28 -268.68L1442.65 -290.73L1444.6 -312.87L1446.12 -335.09L1447.21 -357.39L1447.86 -379.77L1448.08 -402.22L1447.86 -424.68L1447.2 -447.06L1446.11 -469.37L1444.59 -491.59L1442.64 -513.73L1440.26 -535.78L1437.45 -557.73L1434.22 -579.58L1430.57 -601.33L1426.5 -622.96L1422.01 -644.48L1417.1 -665.88L1411.78 -687.16L1406.05 -708.3L1399.9 -729.31L1393.35 -750.18L1386.39 -770.9L1379.03 -791.48L1371.27 -811.9L1363.1 -832.16L1354.54 -852.26L1345.58 -872.19L1336.23 -891.94L1326.48 -911.52L1316.35 -930.91L1305.82 -950.11L1294.92 -969.12L1283.62 -987.93L1271.95 -1006.54L1259.89 -1024.94L1247.46 -1043.13L1234.65 -1061.1L1221.47 -1078.85L1207.91 -1096.36L1193.99 -1113.65L1179.69 -1130.7L1165.03 -1147.51L1150.01 -1164.07L1134.63 -1180.38L1118.88 -1196.43L1102.76 -1212.24L1086.38 -1227.68L1069.74 -1242.77L1052.86 -1257.49L1035.73 -1271.84L1018.36 -1285.83L1000.75 -1299.44L982.91 -1312.68L964.85 -1325.54L946.57 -1338.03L928.07 -1350.14L909.37 -1361.86L890.45 -1373.21L871.34 -1384.16L852.03 -1394.73L832.53 -1404.91L812.84 -1414.7L792.97 -1424.09L772.93 -1433.09L752.71 -1441.69L732.33 -1449.9L711.79 -1457.7L691.09 -1465.09L670.23 -1472.08L649.24 -1478.66L628.1 -1484.83L606.82 -1490.59L585.41 -1495.94L563.87 -1500.87L542.22 -1505.38L520.44 -1509.48L498.55 -1513.14L476.56 -1516.39L454.46 -1519.21L432.27 -1521.6L409.98 -1523.56L387.6 -1525.09L365.15 -1526.19L342.61 -1526.84L320 -1527.06L297.39 -1526.84L274.84 -1526.19Z" id="e21Ot7IaoY"></path></defs><g><g><use xlink:href="#h2fBKw2QP" opacity="1" fill="#000000" fill-opacity="1"></use><g><use xlink:href="#h2fBKw2QP" opacity="1" fill-opacity="0" stroke="#000000" stroke-width="1" stroke-opacity="0"></use></g></g><g><g><use xlink:href="#b5dWYLBJha" opacity="1" fill-opacity="0" stroke="#000000" stroke-width="1" stroke-opacity="1"></use></g></g><g><use xlink:href="#e21Ot7IaoY" opacity="1" fill="#010002" fill-opacity="1"></use><g><use xlink:href="#e21Ot7IaoY" opacity="1" fill-opacity="0" stroke="#000000" stroke-width="1" stroke-opacity="0"></use></g></g></g></svg>